<svg width="160" height="24" viewBox="0 0 160 24" fill="none" xmlns="http://www.w3.org/2000/svg">
<path d="M55.1273 16.9799H51.6778V10.7689C51.6778 8.94442 50.869 8.03221 49.2512 8.03221C48.4741 8.01634 47.8318 8.29397 47.3243 8.8651C46.8326 9.43623 46.5868 10.1184 46.5868 10.9116V16.9799H43.2086V5.22416H46.3013L46.4203 6.72337C47.356 5.50179 48.6248 4.90686 50.2266 4.93859C53.4938 4.93859 55.1273 6.87408 55.1273 10.7451V16.9799Z" fill="#00489D"/>
<path d="M61.2939 5.20036H57.8682V16.9799H61.2939V5.20036ZM58.225 3.53457C57.8286 3.18555 57.6303 2.70961 57.6303 2.10675C57.6303 1.50389 57.8286 1.02795 58.225 0.678929C58.6374 0.329906 59.0894 0.155396 59.5811 0.155396C60.0727 0.155396 60.5168 0.329906 60.9133 0.678929C61.3257 1.02795 61.5318 1.50389 61.5318 2.10675C61.5318 2.70961 61.3257 3.18555 60.9133 3.53457C60.5168 3.88359 60.0727 4.0581 59.5811 4.0581C59.0894 4.0581 58.6374 3.88359 58.225 3.53457Z" fill="#00489D"/>
<path d="M69.8494 8.0798C68.9771 8.0798 68.2792 8.36536 67.7559 8.93649C67.2325 9.49175 66.9708 10.2136 66.9708 11.102C66.9708 11.9746 67.2246 12.6964 67.7321 13.2675C68.2555 13.8387 68.9612 14.1242 69.8494 14.1242C70.7217 14.1242 71.4671 13.8783 72.0856 13.3865C72.7042 12.8947 73.0134 12.1332 73.0134 11.102C73.0134 10.166 72.6962 9.4283 72.0618 8.8889C71.4274 8.3495 70.69 8.0798 69.8494 8.0798ZM73.061 0.34577H76.5105V16.9799H73.4416L73.2275 15.4807C72.3394 16.6229 71.0389 17.1941 69.326 17.1941C67.5973 17.1941 66.1937 16.6388 65.1152 15.5283C64.0526 14.4019 63.5213 12.9265 63.5213 11.102C63.5213 9.22999 64.0605 7.74664 65.139 6.65198C66.2175 5.54145 67.629 4.98619 69.3736 4.98619C70.9278 4.98619 72.157 5.54145 73.061 6.65198V0.34577Z" fill="#00489D"/>
<path d="M78.905 18.5981H82.0928C82.2038 20.1845 83.1871 20.9778 85.0427 20.9778C85.8516 20.9778 86.5336 20.7874 87.0887 20.4067C87.6596 20.0418 87.9451 19.5103 87.9451 18.8123C87.9451 17.4638 86.9935 16.7895 85.0903 16.7895C83.1554 16.7895 81.6091 16.258 80.4513 15.1951C79.3094 14.1163 78.7384 12.6726 78.7384 10.864C78.7384 8.96029 79.357 7.48487 80.594 6.43781C81.8311 5.39074 83.3299 4.8672 85.0903 4.8672C86.3115 4.8672 87.2314 5.08138 87.85 5.50972L89.1346 3.84393L91.6087 5.74769L90.11 7.53247C90.9664 8.56367 91.3709 9.69006 91.3233 10.9116C91.2757 12.8154 90.4351 14.1877 88.8015 15.0285C90.5461 15.8059 91.4184 17.0671 91.4184 18.8123C91.4184 20.4622 90.792 21.7393 89.539 22.6436C88.2861 23.5479 86.7873 24 85.0427 24C83.0285 24 81.4901 23.5241 80.4275 22.5722C79.3808 21.6362 78.8732 20.3115 78.905 18.5981ZM85.0903 7.91322C84.1863 7.91322 83.4488 8.17499 82.8779 8.69852C82.3228 9.22206 82.0452 9.9439 82.0452 10.864C82.0452 11.7049 82.3307 12.3871 82.9017 12.9106C83.4885 13.4183 84.218 13.6721 85.0903 13.6721C85.915 13.6721 86.6129 13.4262 87.1838 12.9344C87.7548 12.4426 88.0403 11.7525 88.0403 10.864C88.0403 10.0391 87.7548 9.34104 87.1838 8.76991C86.6287 8.19878 85.9309 7.91322 85.0903 7.91322Z" fill="#00489D"/>
<path d="M105.275 12.2205H96.639C96.7342 12.8233 97.0593 13.3231 97.6144 13.7197C98.1695 14.1004 98.907 14.2908 99.8269 14.2908C101.143 14.2908 102.158 13.9815 102.872 13.3627L104.799 15.5045C103.625 16.6626 101.944 17.2416 99.7555 17.2416C97.662 17.2416 96.0363 16.6785 94.8786 15.5521C93.7366 14.4257 93.1657 12.9027 93.1657 10.983C93.1657 9.17446 93.7287 7.71491 94.8548 6.60438C95.9808 5.47799 97.4954 4.9148 99.3986 4.9148C101.476 4.9148 103.062 5.54938 104.157 6.81856C105.267 8.08773 105.64 9.88837 105.275 12.2205ZM96.639 9.72179H102.206C102.174 9.11893 101.889 8.65886 101.349 8.34157C100.81 8.00841 100.16 7.84183 99.3986 7.84183C98.7167 7.84183 98.1298 8.00841 97.6382 8.34157C97.1465 8.67472 96.8135 9.1348 96.639 9.72179Z" fill="#00489D"/>
<path d="M0 14.3253C6.21601 11.4665 12.7931 7.1657 16.5115 1.44135L16.5215 1.42606L16.5515 1.44135L21.5312 3.97463V12.8808C24.2893 10.0654 28.6512 7.79215 32.7748 5.6668L38.125 8.87856C31.9306 11.7491 25.3926 16.0458 21.5674 21.7594L16.5576 19.1648V10.3415C13.7995 13.1476 9.53126 15.5674 5.40768 17.7019L0 14.3253Z" fill="#F6652F"/>
<path d="M116.871 0H118.54L109.864 20.093H108.219L116.871 0Z" fill="#F6652F"/>
<path d="M125.342 7.67491C124.054 7.67491 122.99 8.08011 122.148 8.8905C121.321 9.68501 120.908 10.8053 120.908 12.2513C120.908 13.6814 121.329 14.8016 122.171 15.612C123.014 16.4224 124.07 16.8276 125.342 16.8276C126.613 16.8276 127.669 16.3986 128.512 15.5405C129.37 14.6824 129.799 13.5781 129.799 12.2274C129.799 10.8927 129.37 9.80418 128.512 8.96201C127.669 8.10394 126.613 7.67491 125.342 7.67491ZM129.87 1.45394H131.467V18.1385H129.918L129.87 15.7789C129.409 16.6051 128.758 17.2407 127.916 17.6857C127.089 18.1306 126.2 18.353 125.246 18.353C123.514 18.353 122.092 17.8128 120.98 16.7323C119.867 15.6517 119.311 14.1581 119.311 12.2513C119.311 10.3444 119.867 8.85078 120.98 7.77025C122.092 6.68973 123.514 6.14946 125.246 6.14946C126.215 6.14946 127.121 6.37192 127.963 6.81685C128.806 7.24588 129.441 7.87354 129.87 8.69982V1.45394Z" fill="#F6652F"/>
<path d="M146.311 12.9186H136.062C136.173 14.1263 136.642 15.0797 137.468 15.7789C138.31 16.478 139.327 16.8276 140.519 16.8276C141.266 16.8276 142.013 16.6846 142.759 16.3986C143.522 16.1125 144.102 15.7153 144.499 15.2068L145.572 16.1602C145.016 16.8594 144.277 17.3996 143.355 17.781C142.434 18.1624 141.488 18.353 140.519 18.353C138.739 18.353 137.277 17.7969 136.133 16.6846C134.989 15.5723 134.417 14.0866 134.417 12.2274C134.417 10.4636 134.981 9.00968 136.109 7.86559C137.253 6.72151 138.699 6.14946 140.447 6.14946C142.322 6.14946 143.824 6.72945 144.952 7.88943C146.08 9.03351 146.533 10.7099 146.311 12.9186ZM136.062 11.56H144.809C144.793 10.3206 144.372 9.35131 143.546 8.65215C142.72 7.9371 141.695 7.57957 140.471 7.57957C139.279 7.57957 138.286 7.92915 137.492 8.62832C136.697 9.32748 136.221 10.3047 136.062 11.56Z" fill="#F6652F"/>
<path d="M157.546 6.36398H159.31L154.352 18.1624H152.588L147.63 6.36398H149.394L153.47 16.3986L157.546 6.36398Z" fill="#F6652F"/>
</svg>
